<?xml version="1.0" standalone="no"?>
<!DOCTYPE svg PUBLIC "-//W3C//DTD SVG 20010904//EN"
 "http://www.w3.org/TR/2001/REC-SVG-20010904/DTD/svg10.dtd">
<svg version="1.0" xmlns="http://www.w3.org/2000/svg"
 width="700.000000pt" height="700.000000pt" viewBox="0 0 700.000000 700.000000"
 preserveAspectRatio="xMidYMid meet">
<metadata>
Created by potrace 1.11, written by Peter Selinger 2001-2013
</metadata>
<g transform="translate(0.000000,700.000000) scale(0.100000,-0.100000)"
fill="#000000" stroke="none">
<path d="M3639 6994 c-1 -5 -2 -299 -3 -653 -1 -417 3 -648 9 -656 6 -7 42
-29 80 -50 39 -21 201 -110 360 -198 160 -88 315 -174 345 -190 30 -17 181
-100 335 -185 154 -85 423 -233 598 -329 l317 -175 98 58 c53 31 111 64 127
74 298 170 885 514 885 518 0 7 -17 17 -120 75 -30 16 -138 77 -240 135 -169
96 -419 237 -530 300 -63 35 -258 146 -300 170 -19 11 -170 96 -335 189 -165
94 -435 246 -600 340 -165 93 -457 259 -650 367 -192 109 -356 203 -362 208
-7 6 -14 7 -14 2z"/>
<path d="M3070 6834 c-151 -86 -293 -166 -315 -179 -22 -12 -260 -147 -530
-300 -269 -153 -510 -289 -535 -303 -25 -14 -58 -33 -75 -42 -193 -108 -367
-207 -397 -226 -21 -13 -40 -24 -44 -24 -4 0 -32 -15 -63 -34 -31 -19 -72 -43
-91 -53 -43 -24 -112 -63 -163 -92 -184 -104 -433 -245 -464 -262 -72 -40
-128 -72 -161 -92 l-32 -19 232 -135 c128 -74 251 -145 273 -158 101 -57 434
-250 546 -316 l66 -39 189 103 c104 57 286 157 404 222 193 106 946 520 1060
583 25 13 83 45 130 71 47 25 99 54 115 63 17 10 56 31 88 48 31 17 58 34 58
38 1 4 2 298 3 655 1 426 -2 647 -9 647 -5 -1 -134 -71 -285 -156z"/>
<path d="M3370 5378 c-69 -38 -156 -87 -195 -108 -38 -20 -155 -84 -260 -142
-377 -207 -701 -386 -765 -420 -36 -20 -117 -65 -180 -100 -63 -35 -172 -95
-242 -133 -99 -53 -125 -72 -115 -81 6 -6 109 -67 227 -134 118 -68 267 -154
331 -191 64 -38 143 -83 175 -101 33 -17 115 -65 183 -105 67 -40 125 -73 127
-73 2 0 32 -17 66 -38 35 -21 88 -52 118 -69 30 -17 96 -54 145 -83 50 -29
108 -63 130 -75 22 -13 118 -68 214 -123 l173 -100 97 58 c54 32 115 67 137
79 21 12 48 27 59 34 32 20 87 52 140 82 28 15 165 94 305 175 140 81 271 157
290 167 19 11 139 80 265 153 285 165 261 151 435 250 80 46 151 88 157 94 10
9 1 17 -35 36 -26 13 -63 34 -82 45 -19 12 -71 41 -115 64 -44 24 -98 54 -120
66 -22 12 -65 36 -95 52 -52 28 -412 226 -510 281 -25 13 -184 101 -355 195
-321 176 -342 187 -488 268 -48 27 -88 49 -90 48 -1 0 -58 -32 -127 -71z"/>
<path d="M69 4953 c-4 -71 -3 -3567 1 -3578 4 -10 28 0 95 39 50 29 182 106
295 170 113 65 246 142 295 171 50 29 110 64 135 77 25 14 104 60 175 101
l130 76 0 1155 c0 635 -2 1156 -5 1159 -3 2 -95 56 -205 119 -349 201 -849
489 -882 510 -32 19 -33 19 -34 1z"/>
<path d="M6720 4848 c-113 -65 -214 -123 -225 -128 -11 -5 -41 -22 -66 -37
-25 -16 -122 -72 -215 -126 -93 -54 -176 -102 -184 -108 -8 -5 -62 -36 -120
-68 l-105 -60 0 -1175 0 -1176 45 -25 c25 -14 52 -30 60 -35 24 -14 250 -145
300 -172 25 -14 155 -89 288 -167 134 -77 245 -141 247 -141 2 0 40 -22 85
-50 45 -27 87 -50 93 -50 9 0 12 430 11 1815 0 998 -3 1817 -5 1819 -2 2 -96
-50 -209 -116z"/>
<path d="M1466 3170 c1 -545 4 -994 8 -997 3 -3 14 1 24 10 10 10 21 17 24 17
3 0 113 62 244 138 437 253 1089 629 1124 649 98 55 286 166 293 173 5 4 -88
63 -205 130 -117 68 -312 181 -433 251 -121 70 -236 136 -255 147 -19 10 -123
70 -230 132 -107 62 -208 121 -225 130 -16 10 -102 59 -189 110 -88 50 -164
94 -170 96 -8 3 -11 -287 -10 -986z"/>
<path d="M5330 4046 c-107 -62 -521 -301 -920 -531 -399 -230 -734 -423 -745
-429 -11 -6 -22 -14 -25 -18 -3 -3 -5 -386 -5 -850 l0 -843 295 0 295 -1 65
37 c36 20 90 50 120 66 196 107 479 263 560 308 52 29 122 67 155 85 33 18 74
41 90 50 17 9 94 52 173 94 91 50 142 84 143 95 2 80 0 2043 -3 2046 -1 2 -91
-47 -198 -109z"/>
<path d="M3075 2818 c-77 -44 -212 -121 -300 -171 -88 -49 -173 -97 -190 -107
-16 -9 -187 -106 -380 -214 -192 -109 -366 -207 -385 -218 -19 -12 -55 -32
-80 -46 -25 -14 -282 -159 -572 -323 -290 -165 -542 -307 -560 -317 -89 -48
-524 -296 -531 -302 -7 -6 10 -40 64 -128 9 -15 143 -238 299 -497 155 -259
286 -474 290 -480 6 -7 946 -10 2786 -10 l2778 0 84 150 c46 83 99 179 119
215 20 36 70 126 111 200 41 74 88 160 105 190 94 173 191 348 204 368 l14 23
-903 -5 c-497 -3 -1499 -8 -2228 -11 l-1325 -7 80 49 c142 87 306 187 480 293
94 57 176 109 184 116 11 10 13 118 13 626 -1 727 0 688 -9 688 -5 -1 -71 -37
-148 -82z"/>
</g>
</svg>
