<?xml version="1.0" encoding="UTF-8"?>
<svg width="128" height="128" version="1.1" viewBox="0 0 33.867 33.867" xmlns="http://www.w3.org/2000/svg">
 <g transform="translate(-9.6324 -102.5)">
  <g transform="matrix(.26458 0 0 .26458 3.0238 19.579)" stroke-width=".27016">
   <path transform="translate(24.978 313.42)" d="m61.516 0-57.896 32.744 20.506 11.859 0.29688-0.16211 37.094-20.396v-24.045zm4.9707 0v24.045l37.066 20.424 0.29688 0.16211 20.506-11.887-57.869-32.744zm-65.271 37.066v66.107l20.641-11.916v-42.277l-20.641-11.914zm125.57 0-20.639 11.914v42.955l20.639 11.916v-66.785z" fill="#8ed6fb"/>
   <g fill="#1c78c0">
    <path d="m84.087 388.26-57.896 32.743 12.202 20.305 0.3379 2e-3 101.3 0.10817 11.64-21.038-81.454 0.40353 13.87-8.4802z"/>
    <path d="m88.978 341.76-34.852 19.154 34.852 20.1 34.824-20.1z"/>
    <path d="m126.15 365.29-34.688 20.02v30.977h10.729l23.959-13.174z"/>
    <path d="m51.803 365.29v36.517l31.631-18.262z"/>
   </g>
  </g>
 </g>
</svg>
